<?xml version="1.0" encoding="UTF-8" standalone="no"?>
<!-- Created with Inkscape (http://www.inkscape.org/) -->

<svg
   xmlns:dc="http://purl.org/dc/elements/1.1/"
   xmlns:cc="http://creativecommons.org/ns#"
   xmlns:rdf="http://www.w3.org/1999/02/22-rdf-syntax-ns#"
   xmlns:svg="http://www.w3.org/2000/svg"
   xmlns="http://www.w3.org/2000/svg"
   xmlns:sodipodi="http://sodipodi.sourceforge.net/DTD/sodipodi-0.dtd"
   xmlns:inkscape="http://www.inkscape.org/namespaces/inkscape"
   width="210mm"
   height="297mm"
   viewBox="0 0 210 297"
   version="1.1"
   id="svg8"
   inkscape:export-filename="C:\Users\Martin junior\Downloads\icon.png"
   inkscape:export-xdpi="219.38911"
   inkscape:export-ydpi="219.38911"
   inkscape:version="0.92.4 (5da689c313, 2019-01-14)"
   sodipodi:docname="icon.svg">
  <defs
     id="defs2" />
  <sodipodi:namedview
     id="base"
     pagecolor="#ffffff"
     bordercolor="#666666"
     borderopacity="1.0"
     inkscape:pageopacity="0.0"
     inkscape:pageshadow="2"
     inkscape:zoom="1.979899"
     inkscape:cx="323.61494"
     inkscape:cy="701.63687"
     inkscape:document-units="mm"
     inkscape:current-layer="layer1"
     showgrid="false"
     inkscape:window-width="1920"
     inkscape:window-height="1009"
     inkscape:window-x="1672"
     inkscape:window-y="-8"
     inkscape:window-maximized="1">
    <inkscape:grid
       type="xygrid"
       id="grid4561" />
  </sodipodi:namedview>
  <metadata
     id="metadata5">
    <rdf:RDF>
      <cc:Work
         rdf:about="">
        <dc:format>image/svg+xml</dc:format>
        <dc:type
           rdf:resource="http://purl.org/dc/dcmitype/StillImage" />
        <dc:title></dc:title>
      </cc:Work>
    </rdf:RDF>
  </metadata>
  <g
     inkscape:label="Vrstva 1"
     inkscape:groupmode="layer"
     id="layer1">
    <circle
       style="fill:#ffffff;stroke:#000000;stroke-width:1.823;stroke-linecap:round;stroke-linejoin:round;stroke-miterlimit:4;stroke-dasharray:none"
       id="path4518-4"
       cx="100"
       cy="100"
       r="25.879631" />
    <circle
       style="fill:#000000;stroke:#000000;stroke-width:0.30000001;stroke-linecap:round;stroke-linejoin:round;stroke-miterlimit:4;stroke-dasharray:none"
       id="path4518"
       cx="100"
       cy="100"
       r="24.001488" />
    <path
       style="fill:#000000;stroke-width:0.05416575"
       d="m 70.67016,126.58914 c -0.52876,0.17338 -1.27509,0.0854 -1.86663,-0.22003 -0.28591,-0.14764 -0.36121,-0.21659 -0.8247,-0.75537 l -0.51008,-0.59291 -0.0693,-0.36083 c -0.0381,-0.19847 -0.0867,-0.66542 -0.10791,-1.0377 -0.051,-0.89305 -0.034,-4.64792 0.0383,-8.44593 0.032,-1.68149 0.0652,-3.48184 0.0737,-4.00078 0.008,-0.51894 0.0216,-1.22492 0.029,-1.56882 0.007,-0.34391 0.0333,-1.75606 0.0576,-3.13811 0.0572,-3.25601 0.14151,-7.748273 0.15373,-8.194395 0.0782,-2.856156 0.1441,-10.247061 0.0958,-10.745509 l -0.0333,-0.34361 -0.38023,-0.332266 c -0.82282,-0.719031 -1.43748,-1.653546 -1.72281,-2.619354 -0.20576,-0.696473 -0.22942,-0.979565 -0.24858,-2.974531 -0.0265,-2.763199 0.0376,-11.539211 0.0899,-12.29663 0.0432,-0.625239 0.0602,-0.693904 0.20623,-0.833348 0.22683,-0.216528 0.59019,-0.187394 0.84777,0.06797 0.16821,0.166771 0.18635,0.213483 0.22299,0.574493 0.0428,0.421703 0.0488,3.539172 0.0187,9.704395 l -0.0188,3.8513 0.58128,0.28153 c 0.3197,0.154842 0.58962,0.264375 0.59982,0.243405 0.0102,-0.02097 0.0351,-2.626145 0.0553,-5.789283 0.0202,-3.163137 0.0511,-6.363629 0.0685,-7.112205 l 0.0317,-1.361047 0.19822,-0.151926 c 0.2642,-0.202508 0.56569,-0.172957 0.82134,0.08051 0.16368,0.162266 0.18279,0.21215 0.21961,0.573232 0.0578,0.566934 0.0649,2.113032 0.0388,8.401239 -0.0128,3.062458 -0.0198,5.610259 -0.0157,5.66178 0.006,0.07049 0.15938,0.113129 0.62115,0.172266 l 0.6137,0.07859 0.028,-4.989603 c 0.0479,-8.55649 0.0686,-9.33818 0.25469,-9.649062 0.1379,-0.230301 0.56468,-0.233207 0.81549,-0.0056 0.30533,0.277115 0.29766,0.04818 0.27839,8.308619 -0.0116,4.992883 0.004,6.270543 0.0769,6.286881 0.0504,0.01127 0.32622,-0.03754 0.61308,-0.108494 0.50574,-0.125092 0.52145,-0.133368 0.51876,-0.273258 -0.009,-0.451572 0.11571,-10.241074 0.15013,-11.814443 0.0407,-1.860408 0.0423,-1.876254 0.20199,-2.030032 0.13824,-0.133101 0.2013,-0.150015 0.44663,-0.119783 0.23714,0.02922 0.31065,0.06553 0.43281,0.213733 0.13299,0.161349 0.15079,0.250181 0.18501,0.923158 0.0473,0.92994 0.007,11.437323 -0.0491,12.859753 -0.0742,1.876391 -0.19557,2.417537 -0.72287,3.223566 -0.36155,0.552683 -1.05763,1.17622 -1.59981,1.433105 -0.62481,0.296031 -0.57836,0.202239 -0.57279,1.156645 0.003,0.469665 0.0122,1.202664 0.021,1.628885 0.009,0.426219 0.022,1.16306 0.0293,1.637421 0.0154,1.002436 0.0449,2.615617 0.0501,2.741242 0.002,0.04758 0.007,0.381846 0.0111,0.742828 0.006,0.487867 0.0865,4.395432 0.10538,5.091933 0.001,0.0472 0.0133,0.73056 0.0266,1.5187 0.0254,1.49998 0.0306,1.7656 0.084,4.3545 0.0181,0.8769 0.0369,1.87597 0.0419,2.22019 0.005,0.3442 0.0118,0.73309 0.0151,0.86417 0.0236,0.91878 0.0698,3.21771 0.10078,5.01266 0.005,0.32182 0.0135,0.70682 0.0176,0.85556 0.004,0.14873 0.0118,0.55182 0.017,0.89575 0.005,0.34393 0.0173,0.97477 0.0268,1.40186 0.046,2.06322 0.0969,5.51116 0.0893,6.04431 -0.01,0.67402 -0.0769,1.13596 -0.21519,1.4781 -0.0959,0.23737 -0.1837,0.34645 -0.58774,0.73055 -0.41384,0.3934 -0.5136,0.46417 -0.77533,0.54998 z"
       id="path4546"
       inkscape:connector-curvature="0" />
    <path
       style="fill:#000000;stroke-width:0.11607125"
       d="m 131.11843,127.09137 c -0.58153,-0.2387 -1.32637,-1.01969 -1.50333,-1.5763 -0.19683,-0.61909 -0.19231,-0.87861 0.14868,-8.53028 0.54737,-12.28317 0.74866,-17.526853 0.71151,-18.534395 -0.0405,-1.099645 -0.11515,-1.274719 -1.19606,-2.808428 -1.31227,-1.861917 -2.0396,-3.463511 -2.56233,-5.642269 -0.37192,-1.550188 -0.4861,-5.544311 -0.22342,-7.81726 0.46551,-4.028717 1.38993,-7.673516 2.64712,-10.437031 1.41004,-3.099519 3.03035,-4.555381 3.59205,-3.227494 0.0941,0.222466 0.44975,8.858967 1.16996,28.411276 l 1.03489,28.091641 -0.2507,0.59474 c -0.2681,0.63597 -0.78509,1.18171 -1.38083,1.45759 -0.52547,0.24332 -1.61675,0.25242 -2.18735,0.0182 z"
       id="path4559"
       inkscape:connector-curvature="0" />
    <path
       style="fill:#1ec18d;fill-opacity:1;stroke:none;stroke-width:0.02841176px;stroke-linecap:butt;stroke-linejoin:miter;stroke-opacity:1"
       d="m 100,78.783372 c -0.43264,-0.002 -0.78315,0.008 -0.97655,0.0312 -2.584811,0.31581 -4.618851,0.83704 -6.582464,1.68666 -6.61104,2.86058 -11.14583,8.72069 -12.39684,16.01983 -0.27748,1.61902 -0.24923,4.852008 0.0572,6.550368 0.12789,0.70873 0.28607,1.47577 0.35114,1.70449 0.13166,0.46186 0.53917,0.8974 0.93209,0.99598 0.15012,0.0377 0.95807,-0.11705 1.94127,-0.37187 9.605733,-2.48913 9.736213,-2.5295 10.330783,-3.20655 0.17526,-0.19963 0.42761,-0.56698 0.56087,-0.81633 0.24226,-0.45337 0.24226,-0.45369 0.23216,-5.634718 -0.006,-2.84973 0.0199,-5.18123 0.0564,-5.18123 0.0365,0 0.29542,0.46142 0.57547,1.02519 0.46647,0.93917 1.44656,2.75276 5.046361,9.337278 0.71034,1.29934 1.42347,2.60403 1.58454,2.89934 0.16118,0.2953 1.19378,2.20403 2.29468,4.24162 1.41627,2.62101 2.12338,3.82048 2.41697,4.10033 0.89568,0.8539 2.21424,0.60488 2.7475,-0.5191 0.17418,-0.36682 0.1818,-0.81256 0.10803,-6.37211 -0.0725,-5.459563 -0.0639,-6.007443 0.0992,-6.322823 0.0983,-0.18985 0.29316,-0.38884 0.43329,-0.442095 0.14013,-0.0534 1.76882,-0.48913 3.61913,-0.9687 1.85032,-0.47957 3.71363,-0.96537 4.1408,-1.07974 1.14149,-0.3055 1.37697,-0.28381 1.52689,0.1411 0.2067,0.58588 0.3463,2.639045 0.27199,4.000028 -0.0825,1.51206 -0.46776,3.57875 -0.92091,4.93961 -0.45122,1.35496 -1.69054,3.79396 -2.51008,4.93962 -2.55711,3.57468 -6.34763,6.19375 -10.50046,7.25545 -3.55964,0.91007 -7.184143,0.79495 -10.630491,-0.33772 -1.23619,-0.40623 -3.581983,-1.53601 -3.715243,-1.78943 -0.0546,-0.10373 -0.13219,-0.4333 -0.17256,-0.73214 -0.0402,-0.29885 -0.20424,-0.80623 -0.36414,-1.12752 -0.48226,-0.96914 -1.63706,-1.58852 -2.72238,-1.46041 -1.83324,0.21638 -2.97096,2.22916 -2.19479,3.88297 0.62078,1.32264 1.88864,1.89918 3.33939,1.51872 l 0.64011,-0.16795 1.72232,0.84629 c 2.197923,1.07984 3.780953,1.59367 6.178501,2.00527 1.571003,0.26964 4.768453,0.27071 6.376303,0.002 8.47563,-1.41542 15.09247,-7.45163 17.1393,-15.63551 0.77069,-3.08167 0.83662,-6.033863 0.20467,-9.174698 -0.2546,-1.26573 -0.41804,-1.61483 -0.86368,-1.84528 -0.41407,-0.21412 -0.58438,-0.1906 -2.72238,0.37564 -0.94497,0.2503 -3.18326,0.83651 -4.97398,1.30287 -1.79072,0.46626 -3.54364,0.97686 -3.89553,1.13483 -0.68371,0.30679 -1.12946,0.73718 -1.51904,1.46621 -0.24162,0.45229 -0.24226,0.46604 -0.24226,5.554168 0,2.80538 -0.0396,5.11433 -0.088,5.13108 -0.0485,0.0167 -0.29498,-0.39399 -0.54809,-0.91275 -0.2531,-0.51877 -1.77923,-3.35927 -3.39147,-6.31229 -1.61237,-2.953048 -3.70268,-6.794678 -4.645193,-8.536958 -0.9426,-1.74229 -1.977028,-3.65102 -2.298848,-4.24164 -0.32183,-0.5906 -0.77015,-1.25187 -0.99641,-1.46942 -0.88838,-0.85446 -2.21069,-0.60468 -2.743523,0.51822 -0.17354,0.36564 -0.18116,0.81687 -0.10739,6.37105 0.0899,6.774258 0.12038,6.487228 -0.71871,6.798318 -0.2544,0.0942 -1.88801,0.54003 -3.6303,0.99061 -1.7423,0.45057 -3.51723,0.91253 -3.9444,1.02668 -1.14148,0.30507 -1.37665,0.28348 -1.52849,-0.14131 -0.2473,-0.69209 -0.36746,-2.994163 -0.23571,-4.511168 0.22841,-2.62993 0.82621,-4.73527 2.00087,-7.0453 0.9584,-1.88468 1.89649,-3.16049 3.48469,-4.73892 1.58755,-1.57778 2.74353,-2.42245 4.60802,-3.36689 1.547933,-0.78422 2.476803,-1.1374 3.968133,-1.50862 1.866208,-0.46465 2.563981,-0.54411 4.694031,-0.53466 1.77687,0.008 2.22047,0.0464 3.43626,0.29863 1.79845,0.37304 3.01575,0.78551 4.62864,1.56832 1.40221,0.6805 1.4747,0.75727 1.57885,1.6754 0.15507,1.36753 1.31642,2.3984 2.70531,2.40119 1.14996,0.003 2.29542,-0.77068 2.63947,-1.78127 0.18738,-0.55066 0.16978,-1.50229 -0.0367,-1.98884 -0.25438,-0.59931 -0.88096,-1.22234 -1.49499,-1.48639 -0.47441,-0.20414 -0.66491,-0.2283 -1.31458,-0.16613 -1.43914,0.13756 -1.56693,0.11963 -2.37037,-0.33224 -1.84055,-1.03518 -4.20458,-1.83732 -6.60406,-2.24098 -0.73729,-0.12403 -2.77263,-0.2299 -4.07046,-0.23506 z m 13.28844,4.58333 c 0.21573,-0.009 0.42771,0.0789 0.61241,0.26362 0.55592,0.55581 0.15688,1.56189 -0.61939,1.56189 -0.40676,0 -0.9425,-0.51888 -0.9425,-0.91276 0,-0.17181 0.12478,-0.40956 0.31399,-0.59877 0.20026,-0.20027 0.41976,-0.30529 0.63549,-0.31398 z M 88.122499,114.18563 c 0.31485,0 0.46164,0.0656 0.6326,0.28296 0.50373,0.64043 0.0609,1.54255 -0.75716,1.54255 -0.11984,0 -0.36521,-0.14733 -0.54508,-0.32719 -0.28284,-0.28285 -0.3186,-0.381 -0.26362,-0.72484 0.0806,-0.50352 0.40634,-0.77348 0.93326,-0.77348 z"
       id="path4563"
       inkscape:connector-curvature="0" />
  </g>
</svg>
